<svg width="14" height="9" viewBox="0 0 14 9" fill="none" xmlns="http://www.w3.org/2000/svg">
<g opacity="0.5">
<path d="M12.4133 1.32502C11.9976 0.905081 11.5026 0.571887 10.9571 0.344773C10.4116 0.117659 9.82637 0.00114889 9.23547 0.00200357H9.22634C8.42038 0.00219849 7.62927 0.218892 6.93572 0.629433C6.24216 1.03997 5.67162 1.62929 5.28374 2.33576C4.89586 3.04224 4.70487 3.83995 4.73076 4.64549C4.75665 5.45103 4.99845 6.23483 5.43089 6.91494C5.50674 7.03392 5.62674 7.1179 5.76451 7.1484C5.90227 7.1789 6.04651 7.15343 6.16549 7.07758C6.28447 7.00173 6.36845 6.88173 6.39895 6.74396C6.42945 6.6062 6.40398 6.46196 6.32813 6.34298C5.99841 5.82351 5.81417 5.22506 5.79464 4.6101C5.77511 3.99513 5.921 3.3862 6.21709 2.84686C6.51318 2.30751 6.94861 1.85753 7.47793 1.54388C8.00725 1.23022 8.61106 1.0644 9.22634 1.06371C10.1375 1.06371 11.0113 1.42565 11.6556 2.06993C12.2998 2.7142 12.6618 3.58802 12.6618 4.49916C12.6618 5.4103 12.2998 6.28412 11.6556 6.92839C11.0113 7.57267 10.1375 7.93462 9.22634 7.93462C8.88782 7.93464 8.5511 7.8854 8.22676 7.78843C8.09179 7.74723 7.94598 7.76134 7.82141 7.82765C7.69684 7.89397 7.60371 8.00705 7.56252 8.14202C7.52132 8.277 7.53543 8.42281 7.60174 8.54738C7.66806 8.67195 7.78114 8.76508 7.91611 8.80627C8.33828 8.93289 8.77646 8.99813 9.2172 8.99997C10.1064 9.00005 10.9757 8.73662 11.7153 8.24296C12.4549 7.74929 13.0316 7.04753 13.3726 6.22631C13.7136 5.40508 13.8036 4.50122 13.6312 3.62888C13.4589 2.75653 13.0319 1.95483 12.4041 1.32502H12.4133Z" fill="#222222"/>
<path d="M8.89188 4.50812C8.8944 3.64938 8.65089 2.80789 8.19017 2.0832C8.11432 1.96422 7.99432 1.88024 7.85655 1.84974C7.71879 1.81924 7.57455 1.84472 7.45557 1.92057C7.33659 1.99641 7.25261 2.11642 7.22211 2.25418C7.19161 2.39195 7.21709 2.53619 7.29293 2.65517C7.62265 3.17464 7.80689 3.77308 7.82642 4.38805C7.84595 5.00301 7.70006 5.61194 7.40397 6.15129C7.10788 6.69063 6.67245 7.14061 6.14313 7.45427C5.61381 7.76792 5.01 7.93375 4.39473 7.93444C3.48359 7.93444 2.60977 7.57249 1.96549 6.92822C1.32122 6.28394 0.959272 5.41012 0.959272 4.49898C0.959272 3.58784 1.32122 2.71402 1.96549 2.06975C2.60977 1.42548 3.48359 1.06353 4.39473 1.06353C4.73088 1.0648 5.06509 1.11466 5.38699 1.21155C5.52172 1.25492 5.66817 1.243 5.79411 1.1784C5.92005 1.1138 6.01517 1.00182 6.05855 0.867087C6.10192 0.732355 6.09 0.58591 6.0254 0.459968C5.9608 0.334026 5.84882 0.238905 5.71409 0.195529C5.29221 0.0674346 4.8539 0.00156465 4.413 0C3.23569 0.0225044 2.11413 0.505682 1.28907 1.34582C0.464001 2.18595 0.00119826 3.31607 2.32358e-06 4.49359C-0.00119362 5.67111 0.459312 6.80217 1.28267 7.64398C2.10603 8.48579 3.2266 8.97124 4.40386 8.99614H4.413C5.60053 8.98988 6.73749 8.51474 7.57636 7.67417C8.41522 6.83359 8.88804 5.69566 8.89188 4.50812Z" fill="#222222"/>
</g>
</svg>
