<svg width="12" height="15" viewBox="0 0 12 15" fill="none" xmlns="http://www.w3.org/2000/svg">
<g opacity="0.5">
<path d="M5.62022 0C3.64463 0 2.04372 1.61794 2.04372 3.61057V4.51321H1.87341C0.834518 4.51321 0 5.34773 0 6.38662V12.2112C0 13.2501 0.834518 14.0846 1.87341 14.0846H9.19673C10.2356 14.0846 11.0701 13.2501 11.0701 12.2112V6.38662C11.0701 5.34773 10.2356 4.51321 9.19673 4.51321V3.61057C9.19673 1.61794 7.59581 0 5.62022 0ZM3.06558 3.61057C3.06558 2.17996 4.20665 1.02186 5.62022 1.02186C7.03379 1.02186 8.17487 2.17996 8.17487 3.61057V4.51321H3.06558V3.61057ZM10.0483 6.38662V12.2112C10.0483 12.6881 9.67359 13.0628 9.19673 13.0628H1.87341C1.39654 13.0628 1.02186 12.6881 1.02186 12.2112V6.38662C1.02186 5.90975 1.39654 5.53507 1.87341 5.53507H9.19673C9.67359 5.53507 10.0483 5.92678 10.0483 6.38662Z" fill="#555555"/>
<path d="M5.53429 8.9415C5.24476 8.9415 5.02336 9.1629 5.02336 9.45243V10.4743C5.02336 10.7638 5.24476 10.9852 5.53429 10.9852C5.82382 10.9852 6.04522 10.7638 6.04522 10.4743V9.45243C6.04522 9.17993 5.82382 8.9415 5.53429 8.9415Z" fill="#555555"/>
</g>
</svg>
