<svg width="11" height="11" viewBox="0 0 11 11" fill="none" xmlns="http://www.w3.org/2000/svg">
<path opacity="0.5" fill-rule="evenodd" clip-rule="evenodd" d="M4.87054 6.46534C4.94417 6.47038 5.01848 6.47295 5.09337 6.47295C5.16789 6.47295 5.24183 6.47038 5.3151 6.46534C7.41932 6.58095 9.08145 8.3276 9.08145 10.4479C9.08145 10.7515 9.32987 11 9.63351 11C9.93715 11 10.1718 10.7515 10.158 10.4479C10.158 8.35739 8.89011 6.55886 7.08254 5.78048C7.83715 5.18481 8.32294 4.2604 8.32294 3.22957C8.32294 1.44917 6.87377 0 5.09337 0C3.31296 0 1.86379 1.46297 1.86379 3.24337C1.86379 4.2676 2.34338 5.1822 3.08973 5.77435C1.27455 6.54939 0 8.35188 0 10.4479C0 10.7515 0.248429 11 0.552064 11C0.855699 11 1.10413 10.7515 1.10413 10.4479C1.10413 8.32758 2.76629 6.58091 4.87054 6.46534ZM2.95412 3.24337C2.95412 2.05644 3.92023 1.10413 5.09337 1.10413C6.2665 1.10413 7.23261 2.04264 7.23261 3.22957C7.23261 4.41651 6.2665 5.36882 5.09337 5.36882C3.92023 5.36882 2.95412 4.43031 2.95412 3.24337Z" fill="#222222"/>
</svg>
