<svg width="12" height="11" viewBox="0 0 12 11" fill="none" xmlns="http://www.w3.org/2000/svg">
<path d="M10.1075 0.916667H9.19079V0.458333C9.19079 0.336776 9.1425 0.220197 9.05655 0.134243C8.97059 0.0482886 8.85401 0 8.73246 0C8.6109 0 8.49432 0.0482886 8.40837 0.134243C8.32241 0.220197 8.27412 0.336776 8.27412 0.458333V0.916667H6.19956V0.458333C6.19956 0.336776 6.15127 0.220197 6.06532 0.134243C5.97936 0.0482886 5.86279 0 5.74123 0C5.61967 0 5.50309 0.0482886 5.41714 0.134243C5.33118 0.220197 5.2829 0.336776 5.2829 0.458333V0.916667H3.20833V0.458333C3.20833 0.336776 3.16004 0.220197 3.07409 0.134243C2.98814 0.0482886 2.87156 0 2.75 0C2.62844 0 2.51186 0.0482886 2.42591 0.134243C2.33996 0.220197 2.29167 0.336776 2.29167 0.458333V0.916667H1.375C1.01033 0.916667 0.660591 1.06153 0.402728 1.31939C0.144866 1.57726 0 1.92699 0 2.29167V10.5417C0 10.6632 0.0482885 10.7798 0.134243 10.8658C0.220197 10.9517 0.336776 11 0.458333 11H11.0241C11.1457 11 11.2623 10.9517 11.3482 10.8658C11.4342 10.7798 11.4825 10.6632 11.4825 10.5417V2.29167C11.4825 1.92699 11.3376 1.57726 11.0797 1.31939C10.8219 1.06153 10.4721 0.916667 10.1075 0.916667ZM1.375 1.83333H2.29167V2.29167C2.29167 2.41322 2.33996 2.5298 2.42591 2.61576C2.51186 2.70171 2.62844 2.75 2.75 2.75C2.87156 2.75 2.98814 2.70171 3.07409 2.61576C3.16004 2.5298 3.20833 2.41322 3.20833 2.29167V1.83333H5.2829V2.29167C5.2829 2.41322 5.33118 2.5298 5.41714 2.61576C5.50309 2.70171 5.61967 2.75 5.74123 2.75C5.86279 2.75 5.97936 2.70171 6.06532 2.61576C6.15127 2.5298 6.19956 2.41322 6.19956 2.29167V1.83333H8.27412V2.29167C8.27412 2.41322 8.32241 2.5298 8.40837 2.61576C8.49432 2.70171 8.6109 2.75 8.73246 2.75C8.85401 2.75 8.97059 2.70171 9.05655 2.61576C9.1425 2.5298 9.19079 2.41322 9.19079 2.29167V1.83333H10.1075C10.229 1.83333 10.3456 1.88162 10.4315 1.96758C10.5175 2.05353 10.5658 2.17011 10.5658 2.29167V3.66667H0.916667V2.29167C0.916667 2.17011 0.964955 2.05353 1.05091 1.96758C1.13686 1.88162 1.25344 1.83333 1.375 1.83333ZM0.916667 10.0833V4.58333H10.5658V10.0833H0.916667Z" fill="#222222"/>
</svg>
