<svg width="13" height="11" viewBox="0 0 13 11" fill="none" xmlns="http://www.w3.org/2000/svg">
<path opacity="0.5" d="M11.6502 1.74377H9.01059V0.924196C9.01059 0.418504 8.6113 0 8.09893 0H4.90105C4.39222 0 3.98939 0.418504 3.98939 0.924196V1.74377H1.34982C0.607773 1.74377 0 2.34711 0 3.08298V9.60118C0 10.337 0.607773 10.9474 1.35336 10.9474H11.6466C12.3922 10.9474 13 10.337 13 9.60118V3.07949C13.0035 2.34711 12.3957 1.74377 11.6502 1.74377ZM4.98233 0.976509H8.02119V1.74377H4.98233V0.976509ZM0.989398 3.07949C0.989398 2.8807 1.15194 2.71679 1.35336 2.71679H11.6466C11.848 2.71679 12.0106 2.8807 12.0106 3.07949V7.42496H0.989398V3.07949ZM12.0141 9.60118C12.0141 9.79997 11.8516 9.97086 11.6502 9.97086H1.35336C1.15194 9.97086 0.989398 9.79997 0.989398 9.60118V8.40147H12.0141V9.60118Z" fill="#222222"/>
</svg>
