<svg width="13" height="12" viewBox="0 0 13 12" fill="none" xmlns="http://www.w3.org/2000/svg">
<path d="M12.7323 3.8583L6.70285 0.961045C6.57756 0.898402 6.42095 0.898402 6.29567 0.961045L0.266235 3.8583C0.0939651 3.93661 0 4.10888 0 4.29681C0 4.48474 0.109626 4.64135 0.281896 4.71965L1.92629 5.42439V10.4731C1.92629 10.6767 2.05157 10.849 2.22384 10.9116C3.602 11.4441 5.0428 11.6947 6.49926 11.6947C7.95572 11.6947 9.39652 11.4441 10.7747 10.9273C10.9626 10.8646 11.0722 10.6767 11.0722 10.4888V5.42439L12.7166 4.71965C12.8889 4.64135 12.9985 4.48474 12.9985 4.29681C13.0142 4.10888 12.9046 3.95227 12.7323 3.8583ZM10.1482 10.1599C7.78345 10.9743 5.21507 10.9743 2.86594 10.1599V5.84723L6.31133 7.35068C6.37397 7.382 6.43661 7.382 6.49926 7.382C6.5619 7.382 6.62454 7.36634 6.68719 7.35068L10.1482 5.84723V10.1599ZM6.49926 6.39536L1.59741 4.26549L6.49926 1.91636L11.4011 4.26549L6.49926 6.39536Z" fill="#222222"/>
</svg>
