<svg width="13" height="10" viewBox="0 0 13 10" fill="none" xmlns="http://www.w3.org/2000/svg">
<path opacity="0.5" d="M10.1091 0H5.89091C4.30909 0 3 1.23656 3 2.84946V3.60215H2.89091C1.30909 3.60215 0 4.89247 0 6.45161V7.15054C0 8.70968 1.30909 10 2.89091 10H7.10909C8.69091 10 10 8.70968 10 7.15054V6.39785H10.1091C11.6909 6.39785 13 5.10753 13 3.54839V2.84946C13 1.23656 11.6909 0 10.1091 0ZM8.90909 7.15054C8.90909 8.11828 8.09091 8.92473 7.10909 8.92473H2.89091C1.90909 8.92473 1.09091 8.17204 1.09091 7.15054V6.39785C1.09091 5.43011 1.90909 4.62366 2.89091 4.62366H3.21818C3.65455 5.64516 4.69091 6.39785 5.89091 6.39785H8.90909V7.15054ZM4.47273 4.62366H7.10909C7.70909 4.62366 8.2 4.89247 8.52727 5.32258H5.89091C5.29091 5.37634 4.8 5.05376 4.47273 4.62366ZM11.9091 3.60215C11.9091 4.56989 11.0909 5.37635 10.1091 5.37635H9.78182C9.34546 4.35484 8.30909 3.60215 7.10909 3.60215H4.09091V2.84946C4.09091 1.88172 4.90909 1.07527 5.89091 1.07527H10.1091C11.0909 1.07527 11.9091 1.88172 11.9091 2.84946V3.60215Z" fill="#222222"/>
</svg>
